<svg width="36" height="36" viewBox="0 0 36 36" fill="none" xmlns="http://www.w3.org/2000/svg">
<path d="M18 2.25C9.30234 2.25 2.25 9.30234 2.25 18C2.25 26.6977 9.30234 33.75 18 33.75C26.6977 33.75 33.75 26.6977 33.75 18C33.75 9.30234 26.6977 2.25 18 2.25ZM18.784 25.6359L18.791 26.7504C18.791 26.9051 18.6645 27.0352 18.5098 27.0352H17.5113C17.3566 27.0352 17.2301 26.9086 17.2301 26.7539V25.65C14.1082 25.418 12.6387 23.6391 12.4805 21.7055C12.4664 21.5402 12.5965 21.3996 12.7617 21.3996H14.3859C14.523 21.3996 14.6426 21.498 14.6637 21.6316C14.843 22.7461 15.7113 23.5793 17.2688 23.7867V18.7699L16.4004 18.5484C14.5617 18.109 12.8109 16.9629 12.8109 14.5863C12.8109 12.0234 14.7586 10.6453 17.2477 10.4027V9.24258C17.2477 9.08789 17.3742 8.96133 17.5289 8.96133H18.5168C18.6715 8.96133 18.798 9.08789 18.798 9.24258V10.3922C21.2063 10.6348 23.0133 12.041 23.2242 14.2312C23.2418 14.3965 23.1117 14.5406 22.943 14.5406H21.3645C21.2238 14.5406 21.1043 14.4352 21.0867 14.298C20.9461 13.2715 20.1234 12.4348 18.784 12.252V16.9734L19.677 17.1809C21.9551 17.7434 23.5055 18.8332 23.5055 21.273C23.5055 23.9203 21.5367 25.3969 18.784 25.6359ZM14.9977 14.4246C14.9977 15.3176 15.5496 16.0102 16.7379 16.4391C16.9031 16.5059 17.0684 16.5586 17.2652 16.6148V12.2555C15.968 12.4207 14.9977 13.1484 14.9977 14.4246ZM19.0934 19.1777C18.9949 19.1566 18.8965 19.132 18.784 19.1004V23.8008C20.2816 23.6672 21.3152 22.8445 21.3152 21.4664C21.3152 20.3871 20.7562 19.684 19.0934 19.1777Z" fill="#57B894"/>
</svg>
